<svg width="39.68" height="59.53" version="1.1" viewBox="0 0 39.68 59.53" xmlns="http://www.w3.org/2000/svg"><path d="m0 0v0.64062 58.25 0.63867h0.57031 38.539 0.57031v-0.63867-58.25-0.64062h-0.57031-38.539-0.57031z" fill="#fff"/><path d="m0.58008 0.64062v58.25h38.529v-58.25h-38.529z"/><g fill="#fff"><path d="m2.5098 2.7109v9.6582h34.381v-9.6582h-34.381z"/><path d="m2.5 14.48v35.51h34.4v-35.51h-34.4z"/><path d="m2.5 52.08v4.709h7.0703v-1.0996h-4.291v-0.72852h3.4902v-1.1016h-3.4902v-0.67969h4.1309v-1.0996h-6.9102z"/><g><path d="m14.461 51.949c-2.12 0-3.6719 0.5-3.6719 1.5 1e-6 1.8 4.8711 1.3115 4.8711 2.0215 0 0.23-0.46039 0.34961-1.1504 0.34961-0.28 1e-6 -0.56906-0.041093-0.78906-0.12109-0.24-0.08-0.40094-0.19914-0.46094-0.36914h-2.6602c0.06 0.85 1.52 1.5801 3.75 1.5801 2.32 0 3.9609-0.53109 3.9609-1.6211 0-1.71-4.8711-1.2687-4.8711-1.9688 0-0.18 0.27086-0.28125 0.88086-0.28125 0.28 0 0.51875 0.031797 0.71875 0.091797 0.2 0.06 0.36039 0.15836 0.40039 0.31836v-0.009766h2.6406c-0.2-0.82-1.2691-1.4902-3.6191-1.4902z"/><path d="m19.689 52.08v4.709h2.7715v-1.6289h0.84961c1.29 0 1.4785 0.20031 1.4785 0.82031 0 0.41 0.070625 0.71031 0.14063 0.82031h2.8105v-0.14062c-0.33 0-0.29102-0.22008-0.29102-0.83008 0-0.95-0.53969-1.0602-1.4297-1.2402 0.99-0.16 1.4199-0.62016 1.4199-1.1602 0-0.92-0.93-1.3496-3.75-1.3496h-4zm2.7715 1.0996h1.2891c0.65 0 1.1191 0.16023 1.1191 0.49023s-0.45836 0.44922-1.3184 0.44922h-1.0898v-0.93945z"/><path d="m29.141 52.08v4.709h4.1191c2.21 0 3.6504-0.36992 3.6504-1.4199 0-0.51-0.49016-0.95008-1.4102-1.0801 0.54-0.18 1.1094-0.52953 1.1094-1.0195 0-0.93-1.5099-1.1895-3.4199-1.1895h-4.0488zm2.7695 1.0996h0.98047c0.58-1e-6 1.1289 0.010859 1.1289 0.38086 0 0.27-0.39922 0.41016-0.94922 0.41016h-1.1602v-0.79102zm0 1.6504h0.87891c0.89 0 1.5312 0.029453 1.5312 0.43945 0 0.35-0.51117 0.42969-1.2012 0.42969h-1.209v-0.86914z"/></g></g><path d="m25.939 16.471-20.83 6.2188 4.3359 13.68h1.0039v3.1699l0.81836 2.582c-0.070106-0.3858-0.11719-0.78743-0.11719-1.2207 0-2.21 0.84906-4.5605 4.2891-4.5605 2.54 0 4.0801 1.7005 4.0801 4.5605 0 2.69-1.3597 4.5605-4.1797 4.5605-1.8356 0-3.0395-0.78576-3.668-2.0645l1.459 4.6035 21.17-6.3203-2.0898-6.5898-10.781 3.2207-0.90039-2.8398 9.6406-2.8711-2.0801-6.5996-9.6406 2.8809-0.84961-2.7012 10.43-3.1094-2.0898-6.5996zm-14.268 26.926-0.4043-1.2754c0.084394 0.46442 0.21646 0.89323 0.4043 1.2754zm-1.2227-3.8574-1.0039-3.1699h-0.89453c-0.72 0.61-1.4506 0.96008-2.6406 1.3301v1.666c1.0166-0.29986 2.0219-0.72781 2.5801-1.2461v6.9004h1.959v-5.4805zm-4.5391-0.17383c-0.0033644 9.93e-4 -0.0064009 0.002917-0.0097656 0.003907h0.0097656v-0.003907zm9.5098-2.1055c-1.32 0-2.4605 0.67055-2.4805 3.5605-0.01 2.11 0.61117 3.5798 2.4512 3.5898 1.88 0.01 2.3103-1.9298 2.3203-3.5098 0.009999-2.53-0.82102-3.6306-2.291-3.6406zm6.4492 2.5605h0.8418v1.4395h1.4883v0.82031h-1.4883v1.4395h-0.8418v-1.4395h-1.4785v-0.82031h1.4785v-1.4395z"/><path d="m19.25 4.7207c-0.33 0-0.5993 0.080234-0.7793 0.24023s-0.32039 0.36891-0.40039 0.62891c-0.09 0.26-0.13039 0.56039-0.15039 0.90039-0.01 0.33-0.019531 0.68883-0.019531 1.0488s0.009531 0.71078 0.019531 1.0508c0.02 0.34 0.07039 0.64016 0.15039 0.91016s0.21039 0.48062 0.40039 0.64062c0.18 0.16 0.4393 0.24023 0.7793 0.24023s0.5993-0.080234 0.7793-0.24023 0.32039-0.37062 0.40039-0.64062c0.089999-0.27 0.14039-0.57016 0.15039-0.91016 0.01-0.34 0.019531-0.69078 0.019531-1.0508s-0.009531-0.70883-0.019531-1.0488c-0.02-0.34-0.070391-0.64039-0.15039-0.90039-0.080001-0.26-0.21039-0.46891-0.40039-0.62891-0.18-0.16-0.4393-0.24023-0.7793-0.24023zm12.869 0.039062c-0.24 0-0.42836 0.040625-0.56836 0.14062-0.14 0.09-0.25008 0.24875-0.33008 0.46875s-0.13016 0.50133-0.16016 0.86133c-0.03 0.35-0.041016 0.78859-0.041016 1.3086 0 0.43 0.01125 0.81016 0.03125 1.1602s0.068672 0.64062 0.13867 0.89062 0.18008 0.44031 0.33008 0.57031c0.14 0.13 0.33961 0.19922 0.59961 0.19922 0.25 0 0.45156-0.069219 0.60156-0.19922 0.14-0.14 0.25008-0.32031 0.33008-0.57031s0.11867-0.54063 0.13867-0.89062c0.02-0.35 0.03125-0.73016 0.03125-1.1602 0-0.52-0.011015-0.95859-0.041015-1.3086-0.03-0.35-0.080157-0.64133-0.16016-0.86133-0.07-0.22-0.18008-0.37875-0.33008-0.46875s-0.34031-0.14062-0.57031-0.14062zm-26.229 0.041016 0.96875 5.4785h0.96094l1.0391-5.4785h-0.80859l-0.69141 3.9883h-0.0097656l-0.60938-3.9883h-0.84961zm-2.4102 0.0097657v5.4688h2.1992v-0.83984h-1.3691v-1.5996h1.2188v-0.83984h-1.2188v-1.3496h1.3203v-0.83984h-2.1504zm5.75 0v5.4688h2.1992v-0.83984h-1.3691v-1.5996h1.2188v-0.83984h-1.2188v-1.3496h1.3203v-0.83984h-2.1504zm2.709 0v5.4785h0.82031 0.009765v-2.2383h0.21094c0.16 1e-7 0.27938 0.029609 0.35938 0.099609 0.08 0.06 0.12992 0.14977 0.16992 0.25977 0.03 0.1 0.050781 0.22891 0.050781 0.37891v0.46094 0.53906c0 0.18 0.030078 0.35148 0.080078 0.52148h0.80859c-0.02-0.06-0.038828-0.16078-0.048828-0.30078-0.01-0.14-0.02125-0.28898-0.03125-0.45898 0-0.17-0.009766-0.33023-0.009766-0.49023v-0.37109c0-0.25-0.029844-0.44008-0.089844-0.58008-0.05-0.13-0.11922-0.23859-0.19922-0.30859-0.079999-0.08-0.16023-0.12062-0.24023-0.14062-0.08-0.02-0.13969-0.040781-0.17969-0.050781v-0.0097656c0.26-0.06 0.45055-0.21898 0.56055-0.45898 0.11-0.25 0.16992-0.54062 0.16992-0.89062 0-0.47-0.08-0.83031-0.25-1.0703-0.16-0.25-0.38992-0.36914-0.66992-0.36914h-1.5215zm2.6602 0 1.0312 3.5801h0.009766v1.8984h0.82031v-1.8984l1.0996-3.5801h-0.83984l-0.63086 2.3203-0.58984-2.3203h-0.90039zm6.6699 0v5.4785h0.76953v-4.0098h0.011719l1.0684 4.0098h1.0918v-5.4785h-0.77148v3.7891h-0.009765l-1.0488-3.7891h-1.1113zm3.6309 0v5.4688h2.1992v-0.83984h-1.3691v-1.5996h1.2188v-0.83984h-1.2188v-1.3496h1.3203v-0.83984h-2.1504zm4.5996 0.0097656c-0.1 0.19-0.20984 0.34047-0.33984 0.48047-0.13 0.14-0.26039 0.25914-0.40039 0.36914h0.009765v1.0195c0.11-0.09 0.22008-0.1793 0.33008-0.2793s0.21055-0.21008 0.31055-0.33008v4.1992h0.82031v-5.459h-0.73047zm-10.25 0.69922c0.12 0 0.2093 0.041094 0.2793 0.12109s0.12016 0.19938 0.16016 0.35938c0.04 0.17 0.060313 0.37086 0.070313 0.63086s0.019531 0.5582 0.019531 0.9082-0.009531 0.66016-0.019531 0.91016c-0.01 0.26-0.030313 0.47086-0.070313 0.63086s-0.090156 0.27938-0.16016 0.35938-0.1593 0.12109-0.2793 0.12109c-0.11 0-0.2093-0.041094-0.2793-0.12109s-0.12016-0.19938-0.16016-0.35938c-0.03-0.17-0.060313-0.37086-0.070313-0.63086-0.02-0.26-0.019531-0.56016-0.019531-0.91016s0.009531-0.6482 0.019531-0.9082 0.030313-0.47086 0.070313-0.63086 0.090156-0.27938 0.16016-0.35938 0.1593-0.12109 0.2793-0.12109zm12.869 0.041016c0.08 0 0.14164 0.020078 0.18164 0.080078 0.05 0.05 0.07961 0.14906 0.09961 0.28906 0.02 0.15 0.039062 0.34938 0.039062 0.60938 0.01 0.26 0.009766 0.60148 0.009766 1.0215 0 0.41-0.009766 0.74977-0.009766 1.0098s-0.019062 0.45938-0.039062 0.60938c-0.02 0.14-0.05961 0.25078-0.09961 0.30078-0.05 0.05-0.10164 0.080078-0.18164 0.080078s-0.13969-0.030078-0.17969-0.080078c-0.05-0.05-0.079609-0.15078-0.099609-0.30078s-0.039063-0.34938-0.039063-0.60938c-0.01-0.26-0.011719-0.59977-0.011719-1.0098v-1.0215c0-0.26 0.021016-0.46938 0.041016-0.60938s0.05961-0.23906 0.09961-0.28906 0.099453-0.080078 0.18945-0.080078zm-19.359 0.089844h0.37109c0.13 0 0.23859 0.050156 0.30859 0.16016s0.11133 0.29859 0.11133 0.55859c0 0.08-0.011484 0.18148-0.021484 0.27148s-0.03836 0.17977-0.068359 0.25977c-0.030001 0.07-0.07086 0.13945-0.13086 0.18945-0.05 0.05-0.11922 0.080078-0.19922 0.080078h-0.37109v-1.5195zm21.631 0.21875v1.4902h-0.92969v0.83984h0.92969v1.5h0.59961v-1.5h0.91992v-0.83984h-0.91992v-1.4902h-0.59961z"/></svg>
