<?xml version="1.0" encoding="UTF-8" standalone="no"?>
<svg
   xmlns:dc="http://purl.org/dc/elements/1.1/"
   xmlns:cc="http://creativecommons.org/ns#"
   xmlns:rdf="http://www.w3.org/1999/02/22-rdf-syntax-ns#"
   xmlns:svg="http://www.w3.org/2000/svg"
   xmlns="http://www.w3.org/2000/svg"
   viewBox="0 0 1428.88 331.88"
   height="331.88"
   width="1428.88"
   xml:space="preserve"
   id="svg2"
   version="1.1"><metadata
     id="metadata8"><rdf:RDF><cc:Work
         rdf:about=""><dc:format>image/svg+xml</dc:format><dc:type
           rdf:resource="http://purl.org/dc/dcmitype/StillImage" /></cc:Work></rdf:RDF></metadata><defs
     id="defs6"><clipPath
       id="clipPath22"
       clipPathUnits="userSpaceOnUse"><path
         id="path20"
         d="M 0,248.91 H 1071.656 V 0 H 0 Z" /></clipPath></defs><g
     transform="matrix(1.3333333,0,0,-1.3333333,0,331.88)"
     id="g10"><g
       transform="translate(60.3667,195.6137)"
       id="g12"><path
         id="path14"
         style="fill:#ffffff;fill-opacity:1;fill-rule:nonzero;stroke:none"
         d="M 0,0 H 19.683 V 18.794 H 31.078 V -30.559 H 19.683 v 20.94 H 0 v -20.94 H -11.395 V 18.794 H 0 Z" /></g><g
       id="g16"><g
         clip-path="url(#clipPath22)"
         id="g18"><g
           transform="translate(120.8134,200.7929)"
           id="g24"><path
             id="path26"
             style="fill:#ffffff;fill-opacity:1;fill-rule:nonzero;stroke:none"
             d="m 0,0 c -2.146,-2.071 -4.365,-5.697 -4.365,-11.172 0,-4.515 1.48,-8.14 4.513,-11.099 3.182,-3.035 6.734,-4.07 10.581,-4.07 5.032,0 8.583,1.85 10.951,4.217 1.924,1.85 4.292,5.328 4.292,11.025 C 25.972,-5.994 23.9,-2.22 21.68,0 19.239,2.368 15.317,4.217 10.803,4.217 6.512,4.217 2.665,2.664 0,0 m 29.968,7.548 c 4.661,-4.514 7.695,-11.026 7.695,-18.647 0,-6.585 -2.368,-13.318 -7.695,-18.498 -4.588,-4.44 -10.803,-7.251 -19.091,-7.251 -9.249,0 -15.538,3.699 -19.238,7.251 -4.735,4.439 -7.695,11.099 -7.695,18.35 0,7.103 3.181,14.281 7.621,18.72 3.33,3.331 9.472,7.252 19.312,7.252 7.695,0 14.133,-2.368 19.091,-7.177" /></g><g
           transform="translate(176.3774,214.4081)"
           id="g28"><path
             id="path30"
             style="fill:#ffffff;fill-opacity:1;fill-rule:nonzero;stroke:none"
             d="M 0,0 10.507,-32.706 21.014,0 h 7.843 L 39.365,-32.706 49.872,0 H 61.71 L 44.914,-49.354 H 35.295 L 24.936,-19.386 14.577,-49.354 H 4.958 L -11.839,0 Z" /></g><g
           transform="translate(297.9394,204.7885)"
           id="g32"><path
             id="path34"
             style="fill:#ffffff;fill-opacity:1;fill-rule:nonzero;stroke:none"
             d="m 0,0 h -15.983 v -9.544 h 14.799 v -9.62 h -14.799 v -20.57 H -27.377 V 9.62 L 0,9.62 Z" /></g><g
           transform="translate(331.603,183.1088)"
           id="g36"><path
             id="path38"
             style="fill:#ffffff;fill-opacity:1;fill-rule:nonzero;stroke:none"
             d="M 0,0 -6.068,16.574 -12.209,0 Z m 3.107,-8.731 h -18.646 l -3.773,-9.323 h -11.839 l 19.903,49.353 h 10.434 l 19.46,-49.353 H 6.807 Z" /></g><g
           transform="translate(371.997,191.9882)"
           id="g40"><path
             id="path42"
             style="fill:#ffffff;fill-opacity:1;fill-rule:nonzero;stroke:none"
             d="m 0,0 h 2.59 c 2.072,0 4.884,0.222 6.808,2.146 0.814,0.813 1.85,2.368 1.85,4.809 0,2.811 -1.332,4.292 -2.294,5.032 -1.85,1.405 -4.81,1.553 -6.289,1.553 H 0 Z m 5.919,22.42 c 6.29,0 10.212,-2.072 12.58,-4.293 2.071,-1.997 4.292,-5.548 4.292,-11.024 0,-3.107 -0.667,-6.955 -3.849,-10.062 -1.701,-1.628 -4.143,-3.108 -6.88,-3.774 L 27.229,-26.934 H 13.319 L 0,-7.474 v -19.46 H -11.395 V 22.42 Z" /></g><g
           transform="translate(439.1025,214.4081)"
           id="g44"><path
             id="path46"
             style="fill:#ffffff;fill-opacity:1;fill-rule:nonzero;stroke:none"
             d="M 0,0 10.507,-32.706 21.014,0 h 7.843 L 39.365,-32.706 49.872,0 H 61.71 L 44.914,-49.354 H 35.295 L 24.936,-19.386 14.577,-49.354 H 4.958 L -11.839,0 Z" /></g><path
           id="path48"
           style="fill:#ffffff;fill-opacity:1;fill-rule:nonzero;stroke:none"
           d="m 522.931,165.055 h -11.395 v 49.354 h 11.395 z" /><g
           transform="translate(550.0839,214.4081)"
           id="g50"><path
             id="path52"
             style="fill:#ffffff;fill-opacity:1;fill-rule:nonzero;stroke:none"
             d="m 0,0 v -39.734 h 15.316 v -9.62 H -11.395 V 0 Z" /></g><g
           transform="translate(588.039,214.4081)"
           id="g54"><path
             id="path56"
             style="fill:#ffffff;fill-opacity:1;fill-rule:nonzero;stroke:none"
             d="m 0,0 v -39.734 h 15.317 v -9.62 H -11.395 V 0 Z" /></g><g
           transform="translate(648.9296,188.0658)"
           id="g58"><path
             id="path60"
             style="fill:#ffffff;fill-opacity:1;fill-rule:nonzero;stroke:none"
             d="M 0,0 -17.685,26.342 H -4.218 L 5.697,11.025 15.613,26.342 H 29.078 L 11.395,0 V -23.011 H 0 Z" /></g><g
           transform="translate(699.166,200.7929)"
           id="g62"><path
             id="path64"
             style="fill:#ffffff;fill-opacity:1;fill-rule:nonzero;stroke:none"
             d="m 0,0 c -2.146,-2.071 -4.366,-5.697 -4.366,-11.172 0,-4.515 1.481,-8.14 4.513,-11.099 3.183,-3.035 6.734,-4.07 10.582,-4.07 5.032,0 8.583,1.85 10.951,4.217 1.924,1.85 4.292,5.328 4.292,11.025 C 25.972,-5.994 23.9,-2.22 21.68,0 19.238,2.368 15.317,4.217 10.804,4.217 6.512,4.217 2.664,2.664 0,0 m 29.968,7.548 c 4.66,-4.514 7.694,-11.026 7.694,-18.647 0,-6.585 -2.367,-13.318 -7.694,-18.498 -4.588,-4.44 -10.803,-7.251 -19.091,-7.251 -9.249,0 -15.538,3.699 -19.237,7.251 -4.736,4.439 -7.697,11.099 -7.697,18.35 0,7.103 3.183,14.281 7.621,18.72 3.331,3.331 9.472,7.252 19.313,7.252 7.695,0 14.133,-2.368 19.091,-7.177" /></g><g
           transform="translate(791.7997,185.1811)"
           id="g66"><path
             id="path68"
             style="fill:#ffffff;fill-opacity:1;fill-rule:nonzero;stroke:none"
             d="m 0,0 c 0,-4.735 -0.592,-10.582 -5.476,-15.613 -4.735,-4.884 -10.211,-5.623 -15.39,-5.623 -5.179,0 -10.655,0.739 -15.39,5.623 -4.884,5.031 -5.475,10.878 -5.475,15.613 v 29.227 h 11.393 V 0.295 c 0,-2.146 0.149,-5.772 2.59,-8.286 1.998,-2.146 4.735,-2.591 6.882,-2.591 2.145,0 4.884,0.445 6.882,2.591 2.441,2.514 2.588,6.14 2.588,8.286 V 29.227 H 0 Z" /></g><g
           transform="translate(840.8495,191.6918)"
           id="g70"><path
             id="path72"
             style="fill:#ffffff;fill-opacity:1;fill-rule:nonzero;stroke:none"
             d="m 0,0 h 4.07 c 1.554,0 4.291,0.075 6.141,1.85 1.036,1.036 1.85,2.737 1.85,4.883 0,2.073 -0.741,3.774 -1.85,4.81 -1.701,1.628 -4.143,1.85 -6.363,1.85 l -3.848,0 z m 5.993,22.716 c 4.292,0 9.028,-0.591 12.949,-4.069 4.217,-3.701 4.81,-8.584 4.81,-11.987 0,-6.216 -2.367,-9.693 -4.218,-11.618 C 15.613,-8.953 10.433,-9.323 6.955,-9.323 H 0 v -17.314 h -11.395 v 49.353 z" /></g><g
           transform="translate(918.3163,185.1811)"
           id="g74"><path
             id="path76"
             style="fill:#ffffff;fill-opacity:1;fill-rule:nonzero;stroke:none"
             d="m 0,0 c 0,-4.735 -0.592,-10.582 -5.475,-15.613 -4.736,-4.884 -10.212,-5.623 -15.391,-5.623 -5.179,0 -10.655,0.739 -15.39,5.623 -4.884,5.031 -5.475,10.878 -5.475,15.613 v 29.227 h 11.394 V 0.295 c 0,-2.146 0.148,-5.772 2.589,-8.286 1.998,-2.146 4.735,-2.591 6.882,-2.591 2.146,0 4.884,0.445 6.882,2.591 2.441,2.514 2.588,6.14 2.588,8.286 V 29.227 H 0 Z" /></g><g
           transform="translate(959.3769,202.3471)"
           id="g78"><path
             id="path80"
             style="fill:#ffffff;fill-opacity:1;fill-rule:nonzero;stroke:none"
             d="m 0,0 c -3.699,3.33 -6.881,3.551 -8.287,3.551 -1.554,0 -3.478,-0.221 -4.809,-1.701 -0.741,-0.74 -1.258,-1.85 -1.258,-3.108 0,-1.184 0.371,-2.072 1.11,-2.738 1.183,-1.109 2.886,-1.554 6.216,-2.812 l 3.699,-1.405 c 2.145,-0.814 4.809,-1.924 6.733,-3.774 2.886,-2.738 3.626,-6.29 3.626,-9.175 0,-5.105 -1.776,-9.546 -4.366,-12.209 -4.365,-4.588 -10.728,-5.031 -13.984,-5.031 -3.552,0 -6.659,0.518 -9.767,2.071 -2.517,1.258 -5.402,3.552 -7.252,5.402 l 5.919,8.139 c 1.258,-1.257 3.256,-2.96 4.589,-3.773 1.923,-1.185 3.921,-1.777 6.215,-1.777 1.479,0 3.552,0.297 5.179,1.703 0.961,0.813 1.776,2.145 1.776,3.994 0,1.628 -0.666,2.664 -1.702,3.553 -1.332,1.11 -4.366,2.219 -5.771,2.737 l -4.07,1.407 c -2.294,0.813 -4.958,1.849 -6.881,3.921 -2.591,2.737 -2.961,6.215 -2.961,8.583 0,4.365 1.333,8.066 4.292,11.099 3.478,3.552 7.622,4.513 12.209,4.513 3.404,0 8.88,-0.591 14.65,-4.883 z" /></g><g
           transform="translate(990.8203,195.6137)"
           id="g82"><path
             id="path84"
             style="fill:#ffffff;fill-opacity:1;fill-rule:nonzero;stroke:none"
             d="M 0,0 H 19.682 V 18.794 H 31.077 V -30.559 H 19.682 v 20.94 H 0 v -20.94 H -11.395 V 18.794 H 0 Z" /></g><g
           transform="translate(411.3027,34.1635)"
           id="g86"><path
             id="path88"
             style="fill:#ffffff;fill-opacity:1;fill-rule:nonzero;stroke:none"
             d="m 0,0 h -25.187 c 0,0 -8.761,65.013 -8.761,65.023 C -42.928,43.642 -61.417,0 -61.417,0 h -8.876 L -97.56,65.023 -106.348,0 h -25.157 c 0,0 11.709,72.751 17.548,109.179 h 20.827 l 27.373,-65.301 27.355,65.301 h 20.886 z" /></g><g
           transform="translate(651.7607,34.1635)"
           id="g90"><path
             id="path92"
             style="fill:#ffffff;fill-opacity:1;fill-rule:nonzero;stroke:none"
             d="M 0,0 H -20.389 L -79.682,70.698 -79.696,0 h -25.197 v 109.179 h 22.046 l 59.306,-70.581 0.005,70.581 H 0 Z" /></g><g
           transform="translate(906.8036,34.1635)"
           id="g94"><path
             id="path96"
             style="fill:#ffffff;fill-opacity:1;fill-rule:nonzero;stroke:none"
             d="M 0,0 H -20.388 L -79.682,70.698 -79.696,0 h -25.198 v 109.179 h 22.047 l 59.305,-70.581 0.007,70.581 H 0 Z" /></g><g
           transform="translate(956.7441,121.9794)"
           id="g98"><path
             id="path100"
             style="fill:#ffffff;fill-opacity:1;fill-rule:nonzero;stroke:none"
             d="m 0,0 v -66.724 c 6.163,-0.135 13.105,0.044 19.014,1.349 11.924,2.873 18.477,9.788 22.067,21.553 1.435,5.779 1.36,11.747 0.748,17.688 -2.663,11.822 -8.85,19.83 -20.498,24.27 C 14.751,0.271 6.944,0.162 0,0 M -25.143,-87.817 V 21.363 H 15.503 C 32.121,20.661 46.81,14.386 57.279,1.082 c 6.221,-7.978 9.6,-16.88 10.537,-26.646 0.882,-9.199 0.616,-16.85 -2.047,-25.537 -5.812,-17.947 -18.303,-29.357 -33.749,-33.988 -6.073,-1.909 -13.026,-2.691 -19.367,-2.728 -11.592,-0.068 -37.796,0 -37.796,0" /></g><g
           transform="translate(48.8637,143.3427)"
           id="g102"><path
             id="path104"
             style="fill:#ffffff;fill-opacity:1;fill-rule:nonzero;stroke:none"
             d="M 0,0 H 25.184 V -41.505 H 68.872 V 0 H 94.064 V -109.179 H 68.872 v 46.345 H 25.184 v -46.345 H 0 Z" /></g><g
           transform="translate(236.2724,143.3427)"
           id="g106"><path
             id="path108"
             style="fill:#ffffff;fill-opacity:1;fill-rule:nonzero;stroke:none"
             d="m 0,0 h 25.188 v -63.81 c -0.152,-6.058 -0.333,-8.701 -1.473,-14.081 -3.997,-17.108 -17.602,-28.657 -33.497,-30.982 -8.366,-1.222 -17.839,-1.419 -26.063,0.625 -16.056,3.991 -25.466,14.578 -29.625,30.438 -0.964,3.675 -1.704,8.387 -1.73,12.186 V 0 h 25.191 v -59.8 c 0.01,-3.264 0.136,-7.151 0.735,-10.35 1.773,-9.496 8.646,-15.52 18.295,-15.882 2.458,-0.092 5.497,0.036 7.91,0.474 7.675,1.536 12.957,7.973 14.402,15.272 0.706,3.589 0.667,6.01 0.667,9.943 z" /></g><g
           transform="translate(732.3798,143.3427)"
           id="g110"><path
             id="path112"
             style="fill:#ffffff;fill-opacity:1;fill-rule:nonzero;stroke:none"
             d="m 0,0 -44.14,-51.84 47.614,-57.339 h -32.332 l -39.053,47.991 v 15.81 L -30.693,0 Z" /></g><g
           transform="translate(479.2461,110.4506)"
           id="g114"><path
             id="path116"
             style="fill:#ffffff;fill-opacity:1;fill-rule:nonzero;stroke:none"
             d="M 0,0 -29.237,-76.288 H -55.475 L -11.403,32.893 H 11.593 L 54.892,-76.288 H 28.625 Z" /></g><path
           id="path118"
           style="fill:#ffffff;fill-opacity:1;fill-rule:nonzero;stroke:none"
           d="m 750.794,143.342 h 25.134 V 34.163 h -25.134 z" /><g
           transform="translate(1008.997,143.3163)"
           id="g120"><path
             id="path122"
             style="fill:#ffffff;fill-opacity:1;fill-rule:nonzero;stroke:none"
             d="m 0,0 h 6.563 c 0.11,0 0.164,-0.056 0.164,-0.167 v -1.469 c 0,-0.116 -0.054,-0.175 -0.164,-0.175 H 4.204 v -6.59 c 0,-0.112 -0.058,-0.168 -0.174,-0.168 H 2.528 c -0.112,0 -0.169,0.056 -0.169,0.168 v 6.59 H 0 c -0.049,0 -0.09,0.018 -0.124,0.051 -0.033,0.033 -0.05,0.075 -0.05,0.124 v 1.469 C -0.174,-0.056 -0.115,0 0,0 m 14.355,-0.201 0.583,-8.148 c 0.005,-0.048 -0.009,-0.092 -0.042,-0.133 -0.034,-0.039 -0.079,-0.06 -0.131,-0.06 h -1.442 c -0.112,0 -0.17,0.056 -0.175,0.167 l -0.274,3.4 -1.093,-3.44 C 11.755,-8.5 11.705,-8.542 11.634,-8.542 h -1.08 c -0.089,0 -0.149,0.042 -0.174,0.127 l -1.087,3.44 -0.281,-3.4 C 9.003,-8.428 8.987,-8.47 8.965,-8.499 8.942,-8.528 8.9,-8.542 8.838,-8.542 H 7.402 c -0.125,0 -0.182,0.064 -0.173,0.193 l 0.583,8.148 c 0.013,0.106 0.071,0.16 0.173,0.16 h 1.531 c 0.097,0 0.156,-0.042 0.173,-0.126 l 1.396,-5.412 1.394,5.412 c 0.017,0.084 0.076,0.126 0.172,0.126 h 1.532 c 0.106,0 0.164,-0.054 0.172,-0.16" /></g></g></g></g></svg>