<svg width="1429" height="332" version="1.1" viewBox="0 0 1429 332" xml:space="preserve" xmlns="http://www.w3.org/2000/svg">
   <g transform="matrix(1.33 0 0 -1.33 0 332)"><g transform="translate(411 63.6)"><path d="m0 0h-25.2s-8.76 65-8.76 65c-8.98-21.4-27.5-65-27.5-65h-8.88l-27.3 65-8.79-65h-25.2s11.7 72.8 17.5 109h20.8l27.4-65.3 27.4 65.3h20.9z" fill="#fff"/></g><g transform="translate(652 63.6)"><path d="m0 0h-20.4l-59.3 70.7-0.014-70.7h-25.2v109h22l59.3-70.6 5e-3 70.6h23.5z" fill="#fff"/></g><g transform="translate(907 63.6)"><path d="m0 0h-20.4l-59.3 70.7-0.014-70.7h-25.2v109h22l59.3-70.6 6e-3 70.6h23.5z" fill="#fff"/></g><g transform="translate(957 151)"><path d="m0 0v-66.7c6.16-0.135 13.1 0.044 19 1.35 11.9 2.87 18.5 9.79 22.1 21.6 1.43 5.78 1.36 11.7 0.748 17.7-2.66 11.8-8.85 19.8-20.5 24.3-6.58 2.14-14.4 2.03-21.3 1.86m-25.1-87.8v109h40.6c16.6-0.701 31.3-6.98 41.8-20.3 6.22-7.98 9.6-16.9 10.5-26.6 0.882-9.2 0.616-16.8-2.05-25.5-5.81-17.9-18.3-29.4-33.7-34-6.07-1.91-13-2.69-19.4-2.73-11.6-0.069-37.8 0-37.8 0" fill="#fff"/></g><g transform="translate(48.9 173)"><path d="m0 0h25.2v-41.5h43.7v41.5h25.2v-109h-25.2v46.3h-43.7v-46.3h-25.2z" fill="#fff"/></g><g transform="translate(236 173)"><path d="m0 0h25.2v-63.8c-0.152-6.06-0.333-8.7-1.47-14.1-4-17.1-17.6-28.7-33.5-31-8.37-1.22-17.8-1.42-26.1 0.625-16.1 3.99-25.5 14.6-29.6 30.4-0.963 3.68-1.7 8.39-1.73 12.2v65.6h25.2v-59.8c0.011-3.26 0.137-7.15 0.734-10.3 1.77-9.5 8.65-15.5 18.3-15.9 2.46-0.092 5.5 0.036 7.91 0.474 7.68 1.54 13 7.97 14.4 15.3 0.706 3.59 0.667 6.01 0.667 9.94z" fill="#fff"/></g><g transform="translate(732 173)"><path d="m0 0-44.1-51.8 47.6-57.3h-32.3l-39.1 48v15.8l37.2 45.4z" fill="#fff"/></g><g transform="translate(479 140)"><path d="m0 0-29.2-76.3h-26.2l44.1 109h23l43.3-109h-26.3z" fill="#fff"/></g><path d="m751 173h25.1v-109h-25.1z" fill="#fff"/><g transform="translate(1009 173)"><path d="m0 0h6.56c0.108 0 0.162-0.056 0.162-0.167v-1.47c0-0.116-0.054-0.175-0.162-0.175h-2.36v-6.59c0-0.112-0.058-0.168-0.174-0.168h-1.5c-0.112 0-0.168 0.056-0.168 0.168v6.59h-2.36c-0.049 0-0.09 0.018-0.124 0.051-0.033 0.033-0.05 0.075-0.05 0.124v1.47c0 0.111 0.058 0.167 0.174 0.167m14.4-0.201 0.584-8.15c4e-3 -0.049-0.01-0.093-0.043-0.134-0.034-0.04-0.078-0.06-0.131-0.06h-1.44c-0.112 0-0.17 0.056-0.175 0.167l-0.274 3.4-1.09-3.44c-0.027-0.085-0.076-0.127-0.147-0.127h-1.08c-0.089 0-0.148 0.042-0.174 0.127l-1.09 3.44-0.281-3.4c-9e-3 -0.053-0.025-0.095-0.047-0.124-0.023-0.029-0.065-0.043-0.127-0.043h-1.44c-0.125 0-0.182 0.064-0.173 0.194l0.583 8.15c0.013 0.107 0.071 0.161 0.174 0.161h1.53c0.098 0 0.156-0.043 0.174-0.127l1.4-5.41 1.4 5.41c0.017 0.084 0.076 0.127 0.173 0.127h1.53c0.107 0 0.165-0.054 0.173-0.161" fill="#fff"/></g></g></svg>
