<?xml version="1.0" encoding="utf-8"?>
<!-- Generator: Adobe Illustrator 27.8.0, SVG Export Plug-In . SVG Version: 6.00 Build 0)  -->
<svg version="1.1" id="Calque_1" xmlns="http://www.w3.org/2000/svg" xmlns:xlink="http://www.w3.org/1999/xlink" x="0px" y="0px"
	 viewBox="0 0 303.6 84.4" style="enable-background:new 0 0 303.6 84.4;" xml:space="preserve">
<style type="text/css">
	.st0{fill:#FFFFFF;}
	.st1{fill:#929292;}
	.st2{fill:#898989;}
	.st3{fill:#BFBFBF;}
</style>
<path class="st0" d="M104.9,21.6h-2.5l-7.7,17.5h3.7c0,0,4.9-12.1,5.2-12.7c0.2,0.6,4.9,12.7,4.9,12.7h3.8L104.9,21.6z"/>
<polygon class="st0" points="125.2,21.6 127.4,21.6 132.1,33.2 137,21.6 139.2,21.6 142.2,39.2 138.7,39.2 137.1,28.9 132.7,39.2 
	131.3,39.2 127.1,28.8 125.4,39.2 121.9,39.2 "/>
<path class="st0" d="M157,21.6c1,0,2,0.1,2.8,0.3c0.8,0.2,1.6,0.5,2.2,0.9c0.6,0.4,1.1,1,1.4,1.7c0.3,0.7,0.5,1.5,0.5,2.5
	c0,0.9-0.2,1.6-0.5,2.3c-0.3,0.7-0.7,1.3-1.3,1.7c-0.6,0.5-1.2,0.8-2,1.1c-0.8,0.2-1.6,0.4-2.5,0.4h-1.4v6.6h-3.5V21.6H157z
	 M156.3,29.6h1c1.1,0,1.9-0.2,2.4-0.6c0.6-0.4,0.8-1,0.8-1.9c0-0.8-0.3-1.4-0.9-1.8c-0.6-0.4-1.4-0.6-2.5-0.6h-0.9V29.6z"/>
<polygon class="st0" points="173.8,39.2 173.8,21.6 177.3,21.6 177.3,35.9 182.5,35.9 182.5,39.2 "/>
<rect x="193.7" y="21.6" class="st0" width="3.5" height="17.5"/>
<polygon class="st0" points="207.4,21.6 218.8,21.6 218.8,24.9 214.9,24.9 214.9,39.2 211.3,39.2 211.3,24.9 207.4,24.9 "/>
<path class="st0" d="M228.5,21.6h3.5v10.7c0,1.4,0.3,2.4,0.9,3c0.6,0.6,1.4,0.9,2.4,0.9c1,0,1.8-0.3,2.4-0.9
	c0.6-0.6,0.9-1.7,0.9-3.1V21.6h3.5v11.1c0,1.1-0.2,2.1-0.5,2.9c-0.4,0.8-0.8,1.6-1.5,2.1c-0.6,0.6-1.3,1-2.2,1.3
	c-0.8,0.3-1.7,0.4-2.7,0.4c-1,0-1.9-0.1-2.7-0.4c-0.8-0.3-1.6-0.7-2.2-1.3c-0.6-0.6-1.1-1.3-1.5-2.1c-0.4-0.8-0.5-1.8-0.5-2.9V21.6z
	"/>
<path class="st0" d="M253.1,39.2V21.6h4.4c1.5,0,2.9,0.2,4.1,0.6c1.2,0.4,2.3,1,3.2,1.7c0.9,0.8,1.5,1.7,2,2.8
	c0.5,1.1,0.7,2.4,0.7,3.8c0,1.4-0.2,2.6-0.7,3.7c-0.5,1.1-1.1,2-2,2.7c-0.8,0.7-1.9,1.3-3,1.7c-1.2,0.4-2.5,0.6-4,0.6H253.1z
	 M257.6,36c1,0,1.8-0.1,2.6-0.4c0.8-0.2,1.4-0.6,2-1.1c0.5-0.5,1-1.1,1.3-1.8c0.3-0.7,0.4-1.5,0.4-2.4c0-1.8-0.5-3.1-1.5-4.1
	c-1-1-2.6-1.5-4.7-1.5h-1V36H257.6z"/>
<polygon class="st0" points="286.3,21.6 286.3,24.7 279.6,24.7 279.6,28.3 286.1,28.3 286.1,31.2 279.6,31.2 279.6,36.2 286.4,36.2 
	286.4,39.2 276.1,39.2 276.1,21.6 "/>
<path class="st0" d="M101.6,54.6c-0.2-0.3-0.4-0.7-0.7-0.9c-0.2-0.2-0.7-0.4-1.4-0.4c-1.2,0-2.1,0.8-2.1,1.9c0,0.5,0.1,0.8,0.5,1.1
	c0.4,0.4,0.8,0.6,1.3,0.8l1.2,0.5c0.7,0.3,1.4,0.6,1.9,1.2c0.6,0.6,0.9,1.3,0.9,2.2c0,2.3-1.7,3.8-3.9,3.8c-0.8,0-1.8-0.2-2.7-1
	c-0.6-0.6-1-1.4-1.1-2.2l1.3-0.4c0.1,0.6,0.4,1.2,0.7,1.6c0.5,0.5,1.1,0.7,1.8,0.7c1.7,0,2.5-1.2,2.5-2.4c0-0.6-0.2-1-0.6-1.4
	c-0.4-0.3-0.8-0.6-1.5-0.8l-1.1-0.5c-0.5-0.2-1.1-0.5-1.6-1c-0.5-0.5-0.8-1.1-0.8-2c0-1.9,1.5-3.2,3.4-3.2c0.8,0,1.4,0.1,2,0.6
	c0.5,0.3,0.9,0.8,1.2,1.4L101.6,54.6z"/>
<polygon class="st0" points="117.3,53.5 117.3,64.5 115.9,64.5 115.9,53.5 112.9,53.5 112.9,52.2 120.3,52.2 120.3,53.5 "/>
<path class="st0" d="M132.1,59.7c0,1,0,2.2,1,3c0.5,0.4,1.3,0.7,2,0.7c0.7,0,1.5-0.3,2-0.7c1-0.8,1-2,1-3v-7.5h1.4v7.9
	c0,1-0.1,2-0.8,3c-0.7,1-2,1.7-3.6,1.7c-1.6,0-2.9-0.6-3.6-1.7c-0.7-0.9-0.8-1.9-0.8-3v-7.9h1.4V59.7z"/>
<path class="st0" d="M151.2,52.2h2.5c1.2,0,3,0.1,4.5,1.4c1.1,0.9,2.1,2.5,2.1,4.7c0,2.6-1.3,4-2.2,4.7c-1.1,1-2.3,1.4-4.5,1.4h-2.5
	V52.2z M152.6,63.2h1.2c1,0,2.3-0.1,3.5-1.1c0.9-0.8,1.7-2,1.7-3.7c0-3-2.1-4.9-5.2-4.9h-1.2V63.2z"/>
<rect x="171.5" y="52.2" class="st0" width="1.4" height="12.3"/>
<path class="st0" d="M184,58.3c0-3.7,2.9-6.4,6.4-6.4c3.5,0,6.4,2.7,6.4,6.4c0,3.7-2.8,6.4-6.4,6.4C186.8,64.7,184,62,184,58.3
	 M185.4,58.3c0,2.8,2.2,5.1,5,5.1c2.8,0,5-2.2,5-5.1c0-2.8-2.2-5.1-5-5.1C187.6,53.3,185.4,55.5,185.4,58.3"/>
<path class="st0" d="M213.4,54.6c-0.2-0.3-0.4-0.7-0.7-0.9c-0.2-0.2-0.7-0.4-1.4-0.4c-1.2,0-2.1,0.8-2.1,1.9c0,0.5,0.1,0.8,0.5,1.1
	c0.4,0.4,0.8,0.6,1.3,0.8l1.2,0.5c0.7,0.3,1.4,0.6,1.9,1.2c0.6,0.6,0.9,1.3,0.9,2.2c0,2.3-1.7,3.8-3.9,3.8c-0.8,0-1.8-0.2-2.7-1
	c-0.6-0.6-1-1.4-1.1-2.2l1.3-0.4c0.1,0.6,0.4,1.2,0.7,1.6c0.5,0.5,1.1,0.7,1.8,0.7c1.7,0,2.5-1.2,2.5-2.4c0-0.6-0.2-1-0.6-1.4
	c-0.4-0.3-0.8-0.6-1.5-0.8l-1.1-0.5c-0.5-0.2-1.1-0.5-1.6-1c-0.5-0.5-0.8-1.1-0.8-2c0-1.9,1.5-3.2,3.4-3.2c0.8,0,1.4,0.1,2,0.6
	c0.5,0.3,0.9,0.8,1.2,1.4L213.4,54.6z"/>
<path class="st1" d="M50.6,9.8c-2.9,0-5.8,0.4-8.5,1.1l2.8,6.6c1.8-0.4,3.7-0.6,5.7-0.6C65.1,16.9,77,28.7,77,43.3
	c0,14.6-11.8,26.4-26.4,26.4c-5.8,0-13-4.2-15.6-5.9c-1.4-0.9-3.4-3-3.4-3l0,9.3c5.2,3.6,12.3,6.8,19,6.8c18.5,0,33.5-15,33.5-33.5
	C84.1,24.8,69.1,9.8,50.6,9.8"/>
<path class="st2" d="M26.2,53.4c-1.3-3.1-2-6.6-2-10.1c0-7.4,3.1-14.1,8-18.9l-6.3-3.7c-5.5,6-8.8,13.9-8.8,22.7
	c0,4.9,1.1,9.6,3,13.8L26.2,53.4z"/>
<polygon class="st3" points="60.6,47.2 31.6,70 31.6,60.7 60,37.8 "/>
<polygon class="st0" points="25.9,20.6 37.3,20.6 60.6,37.8 60.6,47.2 54.8,42.4 "/>
</svg>
