<svg width="792" height="780" version="1.0" viewBox="0 0 792 780" xmlns="http://www.w3.org/2000/svg"><path d="m83.5 48.8-81 46.7-0.3 94-0.2 94 161.2 93c88.6 51.2 161.8 93.1 162.5 93.3 1.1 0.3 1.3-9.6 1.3-53.1v-53.5l-108.7-62.7c-59.9-34.5-111.9-64.6-115.8-66.9l-7-4.2-0.3-12.8c-0.2-10.1 0-12.7 1-12.3 0.7 0.3 57.8 33.1 126.8 73l125.5 72.5 0.3 79.6c0.1 43.8 0 79.6-0.2 79.6-0.3 0-52.3-29.9-115.5-66.4l-115.1-66.4 0.2 54.1 0.3 54 115 66.4 115 66.3 0.6 26.2-3.5-2c-14.8-8.8-109.9-63.4-111.1-63.8-1.3-0.6-1.5 5.3-1.3 53.2l0.3 53.8 81.3 46.9 81.2 46.9 81.3-46.9 81.2-46.9 0.3-53.8c0.2-42.9 0-53.7-1-53.3-0.7 0.2-26.7 15.1-57.8 33l-56.5 32.6-0.3-146.2c-0.1-80.3 0.1-146.4 0.5-146.8 1-0.9 252.2-145.9 252.9-145.9 0.2 0 0.4 5.6 0.4 12.5v12.5l-3.7 2.3c-2.1 1.3-54.3 31.5-116 67.1l-112.3 64.8v120.5c0 96 0.3 120.4 1.3 120 0.6-0.3 47.6-27.2 104.2-59.9l103-59.4 0.3-54.1 0.2-54.1-56.2 32.5c-31 17.9-56.9 32.7-57.5 33-1 0.4-1.3-2.4-1.3-12.3l0.1-12.9 115.4-66.5 115.5-66.5v-94l-0.1-94-10.7-6.1c-5.9-3.3-42.5-24.3-81.3-46.7l-70.6-40.8-46.6 26.8c-25.7 14.7-46.3 27.1-45.9 27.5s26.1 15.3 57.2 33.3c31.1 17.9 56.6 32.9 56.7 33.3 0.3 0.8-20.4 12.8-21.5 12.5-0.5-0.1-52.6-30.1-116-66.6l-115.1-66.5-209.2 120.6 9.3 5.5c43.7 25.5 199 114.7 199.8 114.7 1 0 90.7-51.4 92.2-52.9 0.5-0.4-24.5-15.2-55.5-33.1-30.9-17.8-56.7-32.8-57.4-33.4-0.9-0.8 1.5-2.7 9.8-7.4l10.9-6.2 68.8 39.6c37.8 21.8 68.8 39.8 69 39.9 0.6 0.5-136.4 79-137.8 79-2 0-253-144.8-252.7-145.7 0.1-0.4 25.6-15.4 56.7-33.3 31.1-18 56.8-32.9 57.2-33.3 0.5-0.5-91-54.2-92.4-54.2-0.2 0-36.7 21-81.3 46.8z" fill="#fff" stroke-width=".1"/></svg>
