<svg id="CONTENT" xmlns="http://www.w3.org/2000/svg" viewBox="0 0 189 186.21"><title>G2G_logo</title><polygon points="55.56 163.73 55.56 137.95 83.35 153.99 83.35 147.67 27.8 115.61 27.8 89.85 83.35 121.92 83.35 83.53 22.33 48.3 22.33 54.62 77.88 86.69 77.88 112.44 0.01 67.5 0 22.54 39.04 0 61.37 12.89 33.48 28.99 94.5 64.22 127.75 45.02 94.5 25.83 89.03 28.99 116.81 45.02 94.5 57.91 44.42 28.99 94.51 0.08 150.05 32.15 155.52 28.99 127.61 12.88 149.98 0.02 189 22.53 189 67.48 133.43 99.56 133.43 105.89 161.2 89.85 161.21 115.61 111.12 144.52 111.13 86.69 166.67 54.62 166.67 48.3 105.65 83.53 105.65 154 133.53 137.93 133.53 163.67 94.5 186.21 55.56 163.73" fill="#fff"/></svg>