<svg xmlns="http://www.w3.org/2000/svg" width="240.879" height="170.282" viewBox="0 0 240.879 170.282"><defs></defs><path class="a" d="M236.9,31.143a30.35,30.35,0,0,0-21.3-21.55C196.814,4.5,121.489,4.5,121.489,4.5s-75.324,0-94.11,5.093a30.351,30.351,0,0,0-21.3,21.55C1.05,50.153,1.05,89.813,1.05,89.813s0,39.661,5.033,58.67a29.9,29.9,0,0,0,21.3,21.206c18.785,5.093,94.11,5.093,94.11,5.093s75.324,0,94.11-5.093a29.9,29.9,0,0,0,21.3-21.206c5.033-19.009,5.033-58.67,5.033-58.67s0-39.661-5.033-58.67ZM96.854,125.822V53.8l62.957,36.01L96.854,125.822Z" transform="translate(-1.05 -4.5)" fill="#FFF"/></svg>