<?xml version="1.0" encoding="UTF-8"?><svg xmlns="http://www.w3.org/2000/svg" viewBox="0 0 2461.09 1947.93"><defs><style>.l{fill:#fff;}</style></defs><g id="a"><path id="b" class="l" d="m913.79,1246.42h-63.5s-22.09-173.93-22.09-173.96c-22.64,57.2-69.26,173.96-69.26,173.96h-22.38l-68.75-173.96-22.16,173.96h-63.43s29.52-194.63,44.25-292.08h52.51l69.01,174.7,68.97-174.7h52.66l44.16,292.08Z"/><polygon id="c" class="l" points="1520.04 1246.42 1468.64 1246.42 1319.14 1057.28 1319.11 1246.42 1255.58 1246.42 1255.58 954.34 1311.16 954.34 1460.68 1143.16 1460.7 954.34 1520.04 954.34 1520.04 1246.42"/><polygon id="d" class="l" points="2163.06 1246.42 2111.66 1246.42 1962.16 1057.28 1962.12 1246.42 1898.6 1246.42 1898.6 954.34 1954.18 954.34 2103.7 1143.16 2103.72 954.34 2163.06 954.34 2163.06 1246.42"/><path id="e" class="l" d="m2225.58,1246.42v-292.08h102.48c41.9,1.88,78.93,18.67,105.33,54.25,15.68,21.35,24.2,45.16,26.57,71.29,2.22,24.61,1.55,45.08-5.17,68.32-14.65,48.01-46.14,78.53-85.09,90.93-15.31,5.1-32.84,7.19-48.82,7.29-29.23.18-95.3,0-95.3,0Zm63.39-234.93v178.5c15.54.36,33.04-.12,47.94-3.6,30.07-7.69,46.59-26.19,55.64-57.66,3.61-15.46,3.43-31.43,1.89-47.32-6.72-31.63-22.32-53.05-51.68-64.93-16.59-5.71-36.27-5.42-53.78-4.99Z"/><polygon id="f" class="l" points="0 954.34 63.5 954.34 63.5 1065.37 173.64 1065.37 173.64 954.34 237.16 954.34 237.16 1246.42 173.64 1246.42 173.64 1122.43 63.5 1122.43 63.5 1246.42 0 1246.42 0 954.34"/><path id="g" class="l" d="m472.5,954.34h63.51v170.71c-.38,16.2-.84,23.28-3.72,37.67-10.08,45.76-44.38,76.67-84.45,82.88-21.09,3.27-44.97,3.8-65.71-1.67-40.48-10.68-64.21-38.99-74.69-81.43-2.43-9.83-4.3-22.43-4.36-32.6v-175.56h63.51v159.98c.03,8.73.34,19.13,1.85,27.69,4.47,25.41,21.8,41.53,46.13,42.49,6.2.25,13.86-.1,19.94-1.27,19.35-4.11,32.67-21.33,36.31-40.86,1.78-9.6,1.68-16.08,1.68-26.6v-161.43Z"/><polygon id="h" class="l" points="1723.3 954.34 1612.01 1093.02 1732.05 1246.42 1650.54 1246.42 1552.08 1118.03 1552.08 1075.73 1645.91 954.34 1723.3 954.34"/><polygon id="i" class="l" points="1085.09 1042.33 1011.38 1246.42 945.23 1246.42 1056.34 954.34 1114.32 954.34 1223.48 1246.42 1157.26 1246.42 1085.09 1042.33"/><rect id="j" class="l" x="1769.72" y="954.34" width="63.37" height="292.08"/><path class="l" d="m1441.58,259.11c.53,9.28-.43,18.42-1.68,27.53-2.85,20.91-5.82,41.81-8.58,62.73-1.34,10.11-2.55,20.26-3.39,30.43-.87,10.66-1.32,21.37-1.78,32.07-.37,8.62-.31,17.26-.73,25.87-.91,18.53-2.12,37.03-6.35,55.14-1.77,7.58-4.11,14.9-8.33,21.41-3.44,5.3-8.12,8.46-14.19,8.78-6.02.32-12.07.26-18.1.34-3.15.05-6.31.1-9.46.07-6.4-.06-12.81-.11-19.21-.3-6.76-.2-13.54-.33-20.28-.9-9.63-.81-19.26-1.72-28.83-3.07-8.56-1.21-17.11-2.43-25.73-3.14-5.67-.46-11.29-1.46-16.56-3.94-4.7-2.21-8.19-5.67-9.44-11.11-1.02-4.44-.21-8.79,1.45-12.91,1.7-4.23,3.55-8.4,5.42-12.55,1.96-4.34,2.95-8.82,2.26-13.64-1.8-12.47-11.87-17.51-21.1-15.51-2.96.64-5.38,2.67-7.35,5.15-4.5,5.67-6.93,12.2-6.19,19.61.33,3.36,1.57,6.66,2.65,9.89,1.35,4.05,3.17,7.93,4.42,12.01,1.81,5.88,1.04,11.41-3.2,15.97-1.17,1.26-2.61,2.51-4.16,3.08-4.26,1.57-8.56,3.18-12.97,4.02-8.08,1.54-14.99,2.57-23.12,3.78-4.11.61-9.74.89-13.87,1.25-3.13.31-9.96.47-13.46.44-10.36-.72-19.82-.54-30.17-1.4-4.67-.39-9.34-.5-14.01-.9-5.08-.43-9.91-1.97-14.52-4.28-5.1-2.56-7.72-7.76-10.62-12.74-3.3-5.67-5.43-11.89-6.95-18.3-1.67-7.06-2.73-14.24-3.16-21.52-.62-10.54.1-20.99,1.31-31.45,1.06-9.11,1.97-18.26,2.41-27.43.47-9.85.38-19.74.41-29.61.01-3.83-.29-7.67-.49-11.5-.57-10.72-1.45-21.44-1.65-32.16-.17-9.54.32-19.1.7-28.65.31-7.73.73-15.45,1.38-23.15,1.04-12.29,2.27-24.56,3.49-36.83,1.15-11.6,2.36-23.18,3.61-34.77,1.41-13.01,3-25.99,4.29-39.01.59-6,.71-12.05.91-18.08.21-6.22.29-12.44.37-18.66.05-3.25-.11-6.51-.01-9.75.18-6.11.35-12.22.78-18.31.43-6.09,1-12.18,1.8-18.22.98-7.41,2.43-14.74,5.58-21.52,1.11-2.39,2.49-4.67,4-6.81,6.96-9.91,22.02-10.3,30.29-.75,4.91,5.67,7.65,12.45,9.53,19.73,1.86,7.23,2.96,14.61,3.05,22.09.07,6.49-.23,12.98-.52,19.46-.22,4.86-.67,9.71-1.01,14.57-.31,4.38-.62,8.76-.93,13.14-.45,6.38-.92,12.77-1.33,19.16-.54,8.42-1.03,16.83-1.52,25.25-.33,5.64-.61,11.28-.91,16.92-.31,5.72-.65,11.44-.92,17.16-.19,3.91-.28,7.83-.44,11.74-.19,4.96-.43,9.91-.59,14.87-.15,4.58-.2,9.17-.31,13.75-.11,4.78-.27,9.56-.37,14.35-.12,5.55-.27,11.11-.29,16.67-.03,11.12.02,22.24.04,33.36,0,1.53.08,3.07.13,4.6.35,9.2.71,18.39,1.05,27.59.13,3.54.12,7.09.4,10.62.16,2.08.61,4.18,1.22,6.17,1.3,4.28,4.01,7.13,8.34,7.56,7.52.75,14.59-.52,20.51-6.02,4.45-4.13,7-9.49,8.63-15.36,1.58-5.7,2.39-11.56,2.41-17.52.02-5.45.3-10.93-.08-16.35-.48-6.77-1.51-13.5-2.32-20.24-.47-3.9-1.03-7.78-1.44-11.68-.61-5.8-1.3-11.6-1.62-17.43-.26-4.66-.06-9.35-.01-14.03.05-4.69.13-9.37.27-14.06.19-6.22.42-12.44.72-18.66.35-7.18.77-14.36,1.23-21.53.41-6.39.94-12.78,1.37-19.17.42-6.19.76-12.39,1.17-18.58.39-5.81.83-11.61,1.24-17.41.44-6.19.94-12.39,1.3-18.59.43-7.56.79-15.12,1.08-22.68.27-7.28.41-14.56.61-21.84.15-5.64.28-11.29.47-16.93.18-5.53.35-11.07.66-16.6.74-12.86.9-25.78,3.5-38.45.81-3.95,1.96-7.77,3.81-11.33,4.15-7.97,11.06-10.76,18.9-10.08,13.21,1.14,21.28,9.52,26.14,21.86,2.98,7.57,4.37,15.52,4.2,23.83-.22,10.82-1.34,21.54-2.33,32.28-.7,7.6-1.38,15.2-2.01,22.81-.79,9.53-1.59,19.07-2.24,28.61-.52,7.64-.88,15.3-1.18,22.95-.3,7.64-.48,15.28-.64,22.93-.07,3.25,0,6.5.1,9.75.2,6.7.49,13.4.67,20.1.21,8.13.38,16.26.5,24.4.14,9.47.25,18.94.28,28.42.02,7.09-.12,14.17-.15,21.26-.04,8.34.07,16.67-.08,25.01-.17,9.3-.51,18.59-.86,27.88-.29,7.57-.71,15.14.25,22.69.93,7.27,2.64,14.3,6.27,20.65,3.86,6.75,9.29,11.03,16.78,12.38,10.33,1.87,20.43,4.73,30.22,8.76,11.18,4.6,21.61,10.68,31.54,17.78,5.4,3.86,10.8,7.72,16.28,11.45,3.9,2.65,8.08,4.76,12.7,5.5,2.29.37,4.7.65,6.97.29,3.76-.59,6.14-3.37,7.84-6.86,2.23-4.59,3.43-9.54,3.79-14.59,1.6-22.05,6.54-43.44,11.01-64.93,2.76-13.27,4.98-26.64,6.41-40.14.96-9.12,1.42-18.3,2.2-27.44.99-11.65,2.2-23.26,5.7-34.44,1.32-4.22,3.2-8.12,5.71-11.69,7.28-10.31,22.68-10.86,30.38-.49,3.5,4.71,5.6,10.06,6.78,15.82.82,4.02,1.23,8.13,1.83,12.2Z"/><path class="l" d="m1217.62,586.19c1.13,12.55-1.71,24.29-6.72,35.42-3.93,8.73-8.39,17.19-12.75,25.7-4.92,9.61-9.82,19.22-12.87,29.74-1.77,6.14-3.44,12.31-5.33,18.41-4.43,14.33-11.67,27.06-20.92,38.35-10.52,12.85-16.43,27.75-19.5,44.23-1.8,9.66-3.41,19.4-6.6,28.69-1.51,4.4-3.31,8.71-5.3,12.89-.91,1.91-2.43,3.57-3.92,5.07-1.92,1.94-2.28,1.98-4.47.41-5.22-3.78-10.56-7.44-15.49-11.62-32.97-27.98-60.54-61.17-83.69-98.55-12.63-20.39-23.28-41.9-32.33-64.34-8.81-21.84-18.98-43.01-29.08-64.2-10.96-22.99-21.89-46-32.57-69.14-10.05-21.77-18.21-44.39-26.23-67.06-1.36-3.85-2.75-7.69-4.1-11.54-2.44-6.96.94-13.04,7.9-14.18,4.78-.78,9.56-.52,14.29.4,12.32,2.4,22.95,8.5,32.53,16.85,8.52,7.42,15.36,16.22,19.3,27.28,3.16,8.87,6.33,17.73,9.25,26.69,4.03,12.37,7.63,24.9,12.7,36.88,8.03,18.98,18.73,34.99,31.32,50.13,8.45,13.04,13.43,19.14,20.33,25.17,18.69,16.68,31.72,1.19,33.13-7.09,2.16-12.71,4.3-25.42,6.54-38.1,1.02-5.75,2.5-11.38,5.1-16.6,2.94-5.89,7.08-10.39,13.22-12.44,3.91-1.3,7.49-2.33,11.6-2.16,12.09.51,23.65,2.01,35.64,3.3,6.63.71,12.15,1.5,18.65,2.19,5.59.29,12.94.97,18.51,1.52,10.3,1.02,18.14,7,23.28,16.49,3.46,6.39,5.71,13.24,7.04,20.43.66,3.57,1.03,7.2,1.53,10.8Z"/><path class="l" d="m1344.65,824.63c-3.2-2.96-5.32-6.39-7.32-9.91-5.7-10.04-10.33-20.65-14.46-31.49-4.8-12.6-9.43-25.28-13.65-38.11-3.25-9.91-5.8-20.08-8.58-30.15-5.12-18.54-9.97-37.18-16.76-55.13-3.29-8.71-7-17.25-10.55-25.84-2.93-7.1-5.64-14.26-7.5-21.79-2.48-10.04-2.4-20.08-.42-30.16,1.49-7.62,3.8-14.97,6.73-22.09.94-2.28,2.07-4.48,3.27-6.62,4.63-8.19,11.61-12.51,20.46-13.19,8.92-.69,17.87-.84,26.8-1.44,11.91-.79,23.8-1.85,35.71-2.67,12.08-.83,24.17-1.7,36.27-2.18,5.8-.23,11.27,1.6,16,5.39,3.54,2.84,5.79,6.41,5.98,11.35.26,6.8.93,13.59,1.12,20.4.19,7.06.03,14.14-.02,21.21-.03,5.07,0,10.14-.24,15.19-.31,6.48-.77,12.95-1.33,19.41-.69,7.99-1.37,16-2.36,23.95-3.53,28.25-9.2,56-17.77,83.03-6.5,20.5-14.46,40.32-25.34,58.7-6.47,10.93-13.81,21.12-23.08,29.6-.88.81-1.81,1.56-2.94,2.54Z"/><path class="l" d="m1330.77,833.9c-2.85,1.52-5.75,3.27-8.8,4.65-6.47,2.93-12.9,6.04-19.56,8.41-10.48,3.73-20.95,2.49-30.89-2.23-7.49-3.56-14.67-7.85-21.94-11.9-5.52-3.07-10.95-6.31-16.98-8.2-7.63-2.38-15.36-2.5-23.04-.7-7.82,1.83-15.5,4.3-23.29,6.27-5.24,1.33-10.55,2.38-15.86,3.38-3.19.6-6.43,1.05-9.66,1.22-6.76.37-13.5.08-20.16-1.31-.44-.09-.89-.17-1.3-.34-.24-.09-.42-.34-.94-.79,1.63-5.62,3.25-11.39,4.98-17.12,2.55-8.45,6.56-16.17,10.58-23.9,9.1-17.47,18.74-34.58,29.84-50.72,2.93-4.26,5.91-8.49,9.08-12.54,6.85-8.73,12.55-18.28,18.09-27.96,4.69-8.2,9.36-16.43,15.17-23.81,2.66-3.37,5.53-6.61,8.65-9.49,4.92-4.55,7.89-3.88,11.28,2.11,1.02,1.81,1.96,3.67,2.83,5.57,6.31,13.72,13.91,26.66,21.29,39.73,5.99,10.6,11.97,21.22,16.84,32.46,1.41,3.26,2.1,6.88,2.99,10.37,1.59,6.26,3.02,12.58,4.64,18.83,1.99,7.66,5.9,14.15,11.01,19.89,4.28,4.81,8.6,9.59,12.7,14.57,4.85,5.88,8.68,12.49,11.53,19.71.35.88.66,1.78.94,2.69.08.25-.01.56-.04,1.17Z"/><path class="l" d="m1348.38,108.22c.55,10.72.42,21.06-.1,31.41-.85,16.99-2.93,33.84-4.93,50.7-1.65,13.96-3.27,27.92-4.82,41.9-1.27,11.38-2.54,22.75-3.61,34.15-1.04,11.06-1.92,22.13-1.61,33.28.27,9.96.32,19.93.3,29.89,0,4.87-.15,9.76-.66,14.59-.6,5.7-2.42,11.06-6.08,15.41-4.96,5.88-11.18,8.51-18.67,7.54-7.06-.91-13.83-2.78-20.05-6.52-7.77-4.67-12.55-11.53-14.03-21.03-1.14-7.34-1.35-14.68-1.01-22.06.64-13.81,3.56-27.23,6.07-40.72,2.06-11.08,4.03-22.18,5.66-33.33,1.12-7.63,1.59-15.36,2.34-23.05.71-7.32,1.4-14.65,2.09-21.97.87-9.35,1.74-18.69,2.59-28.04.83-9.21,1.68-18.43,2.42-27.65.67-8.37,1.17-16.76,1.83-25.14.84-10.69,1.05-21.45,3.06-32.01.9-4.7,2.13-9.27,4.05-13.65,6.22-14.15,26.29-15.84,34.85-2.98,2.85,4.28,4.82,8.96,6.27,13.93,2.45,8.39,3.47,17.03,4.07,25.37Z"/><path class="l" d="m2456.9,954.94l1.47,21.79c.01.13-.03.25-.11.36s-.19.16-.33.16h-3.63c-.28,0-.43-.15-.44-.45l-.69-9.09-2.76,9.2c-.07.23-.19.34-.37.34h-2.72c-.23,0-.37-.11-.44-.34l-2.74-9.2-.71,9.09c-.02.14-.06.25-.12.33s-.16.12-.32.12h-3.62c-.32,0-.46-.17-.44-.52l1.47-21.79c.03-.29.18-.43.44-.43h3.85c.25,0,.39.11.44.34l3.52,14.48,3.52-14.48c.05-.23.19-.34.44-.34h3.85c.27,0,.42.14.44.43Zm-36.19-.54h16.55c.27,0,.41.15.41.45v3.93c0,.31-.14.47-.41.47h-5.95v17.63c0,.3-.15.45-.44.45h-3.79c-.28,0-.42-.15-.42-.45v-17.63h-5.95c-.12,0-.23-.04-.31-.13s-.13-.2-.13-.33v-3.93c0-.3.15-.45.44-.45Z"/></g><g id="k"><path class="l" d="m1295.25,1497.52c0-16.53-9.26-24.79-27.78-24.79h-30.91v49.59h30.91c18.52,0,27.78-8.26,27.78-24.79Z"/><polygon class="l" points="1210.7 1789.47 1252.29 1789.47 1231.62 1729.56 1210.7 1789.47"/><polygon class="l" points="1751.06 1789.47 1792.65 1789.47 1771.98 1729.56 1751.06 1789.47"/><path class="l" d="m687.73,1710.31c-14.62,0-27.72,5.62-36.8,15.24-7.31,7.49-14.87,20.59-14.87,40.38,0,16.31,5.04,29.42,15.37,40.12,10.84,10.97,22.94,14.71,36.04,14.71,17.14,0,29.24-6.69,37.3-15.24,6.55-6.69,14.62-19.25,14.62-39.85,0-18.45-7.06-32.09-14.62-40.12-8.32-8.56-21.68-15.24-37.05-15.24Z"/><path class="l" d="m2033.53,1361.14H429.69c-57.81,0-104.67,49.72-104.67,111.06v364.66c0,61.34,46.86,111.06,104.67,111.06h1603.84c57.81,0,104.67-49.73,104.67-111.06v-364.66c0-61.34-46.86-111.06-104.67-111.06Zm-307.22,147.7c.49-17.7,5.24-31.1,14.26-40.22,9.02-9.11,21.19-13.67,36.52-13.67s27.48,4.56,36.43,13.67c8.95,9.11,13.67,22.52,14.17,40.22.24,7.55.37,13.02.37,16.4s-.12,8.78-.37,16.59c-.49,17.96-5.06,31.4-13.71,40.32-8.65,8.92-20.95,13.37-36.89,13.37s-28.27-4.46-36.98-13.37c-8.71-8.91-13.31-22.35-13.8-40.32-.12-3.9-.18-9.43-.18-16.59s.06-12.62.18-16.4Zm-356.48-47.25c0-1.43.37-2.57,1.1-3.42.74-.84,1.72-1.27,2.94-1.27h75.62c1.35,0,2.42.42,3.22,1.27.8.85,1.2,1.99,1.2,3.42v7.03c0,1.3-.4,2.34-1.2,3.12-.8.78-1.87,1.17-3.22,1.17h-62.74v43.54h58.69c1.35,0,2.42.42,3.22,1.27.8.85,1.2,1.98,1.2,3.42v6.64c0,1.3-.4,2.38-1.2,3.22-.8.85-1.87,1.27-3.22,1.27h-58.69v45.1h64.21c1.35,0,2.42.42,3.22,1.27.8.85,1.2,1.99,1.2,3.42v7.03c0,1.3-.43,2.38-1.29,3.22-.86.85-1.9,1.27-3.13,1.27h-77.09c-1.23,0-2.21-.42-2.94-1.27-.74-.84-1.1-1.92-1.1-3.22v-127.48Zm-150.57,0c0-1.43.37-2.57,1.1-3.42.74-.84,1.72-1.27,2.94-1.27h44.89c13.98,0,24.93,3.48,32.84,10.45,7.91,6.96,11.87,17.08,11.87,30.36,0,9.89-2.33,18.03-6.99,24.4-4.66,6.38-11.16,10.8-19.5,13.28l28.33,52.12c.37.78.55,1.5.55,2.15,0,1.04-.37,1.95-1.1,2.73s-1.59,1.17-2.58,1.17h-8.1c-1.84,0-3.28-.45-4.32-1.37-1.04-.91-1.99-2.21-2.85-3.9l-27.05-49.98h-32.75v50.76c0,1.3-.43,2.38-1.29,3.22-.86.85-1.9,1.27-3.13,1.27h-8.83c-1.23,0-2.21-.42-2.94-1.27-.74-.84-1.1-1.92-1.1-3.22v-127.48Zm-569.48,0c0-1.43.37-2.57,1.1-3.42.74-.84,1.72-1.27,2.94-1.27h8.83c1.35,0,2.42.42,3.22,1.27.8.85,1.2,1.99,1.2,3.42v79.65c0,12.76,2.79,22.26,8.37,28.5,5.58,6.25,13.52,9.37,23.83,9.37s18.06-3.15,23.64-9.47c5.58-6.31,8.37-15.78,8.37-28.41v-79.65c0-1.43.37-2.57,1.1-3.42.74-.84,1.78-1.27,3.13-1.27h8.83c1.23,0,2.24.42,3.04,1.27.8.85,1.2,1.99,1.2,3.42v79.26c0,18.35-4.26,32.05-12.79,41.1-8.53,9.05-20.7,13.57-36.52,13.57s-28.03-4.52-36.61-13.57c-8.59-9.05-12.88-22.75-12.88-41.1v-79.26Zm-140.05,80.04c.86,25.12,11.96,37.68,33.3,37.68,9.2,0,16.56-2.02,22.08-6.05,5.52-4.03,9.32-11,11.41-20.89.37-1.56.92-2.67,1.66-3.32.74-.65,1.72-.98,2.94-.98h9.2c1.1,0,2.05.36,2.85,1.07.8.72,1.2,1.66,1.2,2.83-.37,7.55-2.48,14.64-6.35,21.28-3.86,6.64-9.6,12.01-17.2,16.11-7.61,4.1-16.87,6.15-27.78,6.15-16.31,0-28.73-4.72-37.26-14.15-8.53-9.43-13.1-22.35-13.71-38.75-.12-3.51-.18-9.24-.18-17.18s.06-13.93.18-17.57c.61-16.4,5.18-29.31,13.71-38.75,8.52-9.43,20.94-14.15,37.26-14.15,10.92,0,20.18,2.05,27.78,6.15,7.6,4.1,13.34,9.47,17.2,16.11,3.86,6.64,5.98,13.73,6.35,21.28,0,1.17-.4,2.12-1.2,2.83-.8.72-1.75,1.07-2.85,1.07h-9.2c-1.23,0-2.21-.32-2.94-.98-.74-.65-1.29-1.76-1.66-3.32-2.09-10.02-5.86-17.05-11.31-21.09-5.46-4.03-12.85-6.05-22.17-6.05-21.34,0-32.44,12.63-33.3,37.87-.12,3.51-.18,8.92-.18,16.2s.06,12.82.18,16.59Zm243.28,290.88c-15.63,16.05-36.8,26.21-65.02,26.21-31.5,0-52.93-13.37-65.53-26.21-16.13-16.05-26.21-40.12-26.21-66.32s10.84-51.61,25.96-67.66c11.34-12.03,32.26-26.21,65.78-26.21,26.21,0,48.14,8.56,65.02,25.94,15.88,16.31,26.21,39.85,26.21,67.39,0,23.8-8.06,48.14-26.21,66.86Zm59.28-240.21c-.74-.84-1.1-1.92-1.1-3.22v-127.68c0-1.3.37-2.37,1.1-3.22.74-.84,1.72-1.27,2.94-1.27h9.2c1.22,0,2.21.42,2.94,1.27.74.85,1.1,1.92,1.1,3.22v115.77h61.45c1.35,0,2.42.42,3.22,1.27.8.85,1.2,1.92,1.2,3.22v7.42c0,1.3-.43,2.38-1.29,3.22-.86.85-1.9,1.27-3.13,1.27h-74.7c-1.23,0-2.21-.42-2.94-1.27Zm141.34,137.52c-8.57-9.63-21.42-18.99-39.32-18.99-14.11,0-25.46,4.81-34.28,13.91-9.33,9.63-15.88,24.07-15.88,41.18,0,18.45,7.06,31.56,14.62,39.31,3.53,3.74,15.63,14.98,36.29,14.98,10.08,0,23.69-2.94,38.56-18.45v47.34c-14.87,8.02-26.97,9.63-37.05,9.63-31,0-51.92-11.23-66.03-25.94-15.12-15.51-26.21-39.05-26.21-67.66s11.09-51.61,26.21-67.13c14.87-15.24,36.55-25.67,62.76-25.67,11.09,0,23.94,2.41,40.32,9.89v47.6Zm55.38-260.61c0,1.3-.4,2.38-1.2,3.22s-1.81,1.27-3.04,1.27h-35.33v115.38c0,1.3-.43,2.38-1.29,3.22-.86.85-1.9,1.27-3.13,1.27h-8.83c-1.23,0-2.24-.42-3.04-1.27-.8-.84-1.2-1.92-1.2-3.22v-115.38h-35.51c-1.23,0-2.24-.42-3.04-1.27-.8-.84-1.19-1.92-1.19-3.22v-7.61c0-1.43.4-2.57,1.19-3.42s1.81-1.27,3.04-1.27h88.31c1.35,0,2.39.42,3.13,1.27.74.85,1.1,1.99,1.1,3.42v7.61Zm95.84,241.89h-56.2v34.5h53.43v34.77h-53.43v39.58h56.2v34.77h-95.02v-178.38h95.02v34.77Zm2.5-115.58c-15.82,0-28.03-4.52-36.61-13.57-8.59-9.05-12.88-22.75-12.88-41.1v-79.26c0-1.43.37-2.57,1.1-3.42.74-.84,1.72-1.27,2.94-1.27h8.83c1.35,0,2.42.42,3.22,1.27.8.85,1.2,1.99,1.2,3.42v79.65c0,12.76,2.79,22.26,8.37,28.5,5.58,6.25,13.52,9.37,23.83,9.37s18.06-3.15,23.64-9.47c5.58-6.31,8.37-15.78,8.37-28.41v-79.65c0-1.43.37-2.57,1.1-3.42.74-.84,1.78-1.27,3.13-1.27h8.83c1.23,0,2.24.42,3.04,1.27.8.85,1.2,1.99,1.2,3.42v79.26c0,18.35-4.26,32.05-12.79,41.1-8.53,9.05-20.7,13.57-36.52,13.57Zm168.12,259.19l-12.6-33.7h-63.51l-12.85,33.7h-40.32l67.8-178.38h35.54l66.29,178.38h-40.33Zm253.29,0h-33.77l-91.24-115.53v115.53h-38.81v-178.38h33.77l91.24,115v-115h38.81v178.38Zm59.25-269.44c-8.77,6.83-20.64,10.25-35.6,10.25-10.06,0-18.8-1.69-26.22-5.08-7.42-3.38-13.06-7.84-16.93-13.37-3.86-5.53-5.92-11.48-6.16-17.86,0-1.04.37-1.95,1.1-2.73s1.66-1.17,2.76-1.17h9.02c2.21,0,3.74,1.3,4.6,3.9,1.1,5.47,4.26,10.19,9.47,14.15,5.21,3.97,12.66,5.95,22.35,5.95,10.42,0,18.21-1.95,23.37-5.86s7.73-9.3,7.73-16.2c0-4.42-1.26-8.07-3.77-10.93-2.52-2.86-6.26-5.37-11.22-7.52-4.97-2.15-12.42-4.78-22.35-7.91-9.45-2.86-16.96-5.92-22.54-9.17-5.58-3.25-9.78-7.25-12.6-12.01-2.82-4.75-4.23-10.77-4.23-18.06s1.78-13.31,5.33-18.84c3.56-5.53,8.71-9.89,15.46-13.08,6.74-3.19,14.72-4.78,23.92-4.78s17.75,1.79,24.56,5.37c6.81,3.58,11.99,8.07,15.55,13.47,3.56,5.4,5.46,10.84,5.7,16.3,0,1.17-.37,2.15-1.1,2.93s-1.66,1.17-2.76,1.17h-9.2c-.98,0-1.9-.32-2.76-.98-.86-.65-1.47-1.63-1.84-2.93-.74-5.59-3.68-10.22-8.83-13.86-5.15-3.64-11.59-5.47-19.32-5.47-8.34,0-14.97,1.73-19.87,5.17-4.91,3.45-7.36,8.56-7.36,15.33,0,4.56,1.13,8.27,3.4,11.13,2.27,2.86,5.76,5.4,10.49,7.61,4.72,2.21,11.62,4.75,20.7,7.61,10.42,3.12,18.61,6.25,24.56,9.37,5.95,3.12,10.4,7,13.34,11.62,2.94,4.62,4.42,10.58,4.42,17.86,0,12.23-4.39,21.77-13.15,28.6Zm46.1,269.44h-38.81v-178.38h38.81v178.38Zm181.72,0l-12.6-33.7h-63.51l-12.85,33.7h-40.32l67.8-178.38h35.54l66.29,178.38h-40.33Zm154.11-385.89c0,1.3-.4,2.38-1.2,3.22s-1.87,1.27-3.22,1.27h-61.64v46.27h57.96c1.35,0,2.42.42,3.22,1.27.8.85,1.2,1.92,1.2,3.22v7.42c0,1.3-.43,2.38-1.29,3.22-.86.85-1.9,1.27-3.13,1.27h-57.96v53.1c0,1.3-.43,2.38-1.29,3.22-.86.85-1.9,1.27-3.13,1.27h-8.65c-1.23,0-2.21-.42-2.94-1.27-.74-.84-1.1-1.92-1.1-3.22v-127.48c0-1.43.37-2.57,1.1-3.42.74-.84,1.72-1.27,2.94-1.27h74.7c1.35,0,2.42.42,3.22,1.27.8.85,1.2,1.99,1.2,3.42v7.22Z"/><path class="l" d="m1753.36,1569.86c5.89,6.32,13.8,9.47,23.73,9.47s17.66-3.15,23.55-9.47c5.89-6.31,9.08-15.97,9.57-28.99.24-7.81.37-13.01.37-15.62,0-2.86-.12-8.07-.37-15.62-.49-13.01-3.68-22.71-9.57-29.09-5.89-6.38-13.74-9.57-23.55-9.57s-17.69,3.19-23.64,9.57c-5.95,6.38-9.11,16.08-9.47,29.09-.12,3.78-.18,8.98-.18,15.62s.06,11.71.18,15.62c.37,13.02,3.5,22.68,9.38,28.99Z"/></g></svg>