<svg xmlns="http://www.w3.org/2000/svg" width="170.32" height="170.282" viewBox="0 0 170.32 170.282"><defs></defs><path class="a" d="M85.174,43.721a43.658,43.658,0,1,0,43.658,43.658A43.589,43.589,0,0,0,85.174,43.721Zm0,72.042a28.384,28.384,0,1,1,28.384-28.384A28.435,28.435,0,0,1,85.174,115.762ZM140.8,41.935a10.183,10.183,0,1,1-10.183-10.183A10.159,10.159,0,0,1,140.8,41.935ZM169.717,52.27c-.646-13.641-3.762-25.724-13.755-35.679C146.007,6.636,133.924,3.52,120.283,2.836c-14.059-.8-56.2-.8-70.256,0-13.6.646-25.686,3.762-35.679,13.717S1.277,38.591.593,52.232c-.8,14.059-.8,56.2,0,70.256.646,13.641,3.762,25.724,13.755,35.679s22.038,13.071,35.679,13.755c14.059.8,56.2.8,70.256,0,13.641-.646,25.724-3.762,35.679-13.755,9.955-9.955,13.071-22.038,13.755-35.679.8-14.059.8-56.159,0-70.218Zm-18.162,85.3a28.736,28.736,0,0,1-16.187,16.187c-11.209,4.446-37.807,3.42-50.194,3.42s-39.023.988-50.194-3.42a28.736,28.736,0,0,1-16.187-16.187c-4.446-11.209-3.42-37.807-3.42-50.194s-.988-39.023,3.42-50.194A28.736,28.736,0,0,1,34.98,21c11.209-4.446,37.807-3.42,50.194-3.42S124.2,16.591,135.368,21a28.736,28.736,0,0,1,16.187,16.187c4.446,11.209,3.42,37.807,3.42,50.194S156,126.4,151.554,137.573Z" transform="translate(0.005 -2.238)" fill="#FFF" /></svg>