<svg enable-background="new 0 0 386.7 52.9" version="1.1" viewBox="0 0 386.7 52.9" xml:space="preserve" xmlns="http://www.w3.org/2000/svg">
	<path fill="#FFFFFF" d="m193.7-0.099609c-3 0-5.8996 1.4004-7.5996 3.9004-1.5 2.4-2.2992 5.1996-2.1992 8.0996 0 1.4 0.19961 2.7996 0.59961 4.0996 0.9 2.9 2.2008 5.5996 3.8008 8.0996 1.7 2.7 3.2988 5.1012 4.7988 7.2012 0.7 1 1.4 2.0996 2 3.0996 1.1 1.8 1.8 3.8004 2 5.9004 0 4-1.2004 6-3.4004 6-1.6 0-2.6992-1-3.1992-3-0.5-1.9-0.69961-3.9004-0.59961-5.9004l-7.0996 0.69922c0 4.5 0.69844 8.0012 1.8984 10.201 1.6 3.1 4.7 4.5996 9 4.5996 3.8 0 6.5008-1.3 8.3008-4 1.5-2.1 2.1992-5.2 2.1992-9-0.1-2.8-0.89883-5.5996-2.2988-8.0996-1.5-2.7-3.1004-5.3004-4.9004-7.9004-2.2-3.2-3.4996-5.3008-4.0996-6.3008-1.1-1.7-1.8004-3.6992-1.9004-5.6992 0-3.5 0.90078-5.3004 2.8008-5.4004 1.2 0 2.0992 0.89961 2.6992 2.5996 0.4 1.6 0.59961 3.3 0.59961 5l7.0996-0.69922c0.1-3.1-0.59844-6.2-1.8984-9-1.5-3-4.3008-4.5-8.3008-4.5h-0.30078zm26.301 0c-3.7 0-6.4 1.4-8 4-1.3 2.2-2 5.2992-2 9.1992v3.4004h7.1992v-3.4004c0-1.5 0.1-3 0.5-4.5 0.5-1.3 1.1008-2 2.3008-2s1.9004 0.80078 2.4004 2.3008c0.3 1.4 0.40039 2.8988 0.40039 4.2988-0.2 3.5-1.0012 7.1004-2.2012 10.4-1.2 3.5-2.7004 7.0008-4.4004 10.301-2 3.8-4.0984 7.4-6.3984 11v7.2988l20.398-0.09961v-7.1992h-12.299l0.19922-0.30078c2.8-4.7 5.3-9.5996 7.5-14.6 3-7 4.5-12.9 4.5-17.5 0-3.9-0.69961-7-2.0996-9-1.7-2.4-4.3-3.5996-8-3.5996zm-208.9 0.099609-11.1 6.4004v12.799l22.1 12.801v-7.4004l-15.799-9.0996v-1.8008l17.398 10v11l-15.799-9.1992v7.4004l15.799 9.0996v1.8008l-7.8984-4.6016v7.3008l11.1 6.4004 11.1-6.4004v-7.3008l-8 4.6016v-20.102l17.4-10v1.8008l-15.801 9.0996v16.5l14.201-8.1992v-7.4004l-7.9004 4.5996v-1.7988l15.799-9.1016v-12.799l-11.1-6.4004-6.2988 3.6992 7.8984 4.5-1.5 0.90039-15.799-9.0996-14.301 8.1992 14.301 8.3008 6.2988-3.6992-7.8984-4.6016 1.5996-0.89844 9.4004 5.5-9.4004 5.5-17.4-10.102 7.9004-4.5-6.3008-3.6992zm65 0c-2.1 1.4803e-16 -4.0988 0.60078-5.7988 1.8008-1.3 1-2.3 2.2988-3 3.7988-0.8 1.7-1.2012 3.6-1.2012 5.5v31.4c0 1.7 0.20078 3.4 0.80078 5 0.6 1.4 1.4992 2.6992 2.6992 3.6992 1.5 1.2 3.4008 1.8012 5.3008 1.7012 2.3 0 4.4988-1.1004 5.7988-2.9004l0.20117-0.19922 1 2.6992h4.1992v-25.6h-10.299v6.0996h3v9.5996c0 0.7-0.10078 1.4-0.30078 2-0.2 1.2-1.3 2.0996-2.5 2.0996-0.6 0-1.1996-0.29922-1.5996-0.69922-0.8-1-1.1996-2.2004-1.0996-3.4004v-31.4c0-0.7 0.098828-1.4 0.29883-2 0.2-1.2 1.2004-2.0996 2.4004-2.0996 0.7 0 1.3008 0.20117 1.8008 0.70117 0.7 1 1.1 2.1984 1 3.3984v7.8008h7.2988v-7.9004c0-1.9-0.39922-3.8-1.1992-5.5-1.5-3.5-5.0008-5.6996-8.8008-5.5996zm171.6 0c-2 1.4803e-16 -4.0988 0.60078-5.7988 1.8008-1.3 1-2.3004 2.2988-2.9004 3.7988-0.8 1.7-1.1992 3.6-1.1992 5.5v31.4c-0.1 1.7 0.19883 3.4 0.79883 5 0.6 1.4 1.5012 2.6992 2.7012 3.6992 1.5 1.2 3.3988 1.8012 5.2988 1.7012 2.3 0 4.3996-1.1008 5.5996-2.8008l0.20117-0.29883 1 2.6992h4.1992v-25.6h-10.299v6h3.0996v9.5996c0 0.7-0.10078 1.4-0.30078 2-0.2 1.2-1.3 2.0996-2.5 2.0996-0.6 0-1.1996-0.29922-1.5996-0.69922-0.8-1-1.1996-2.2004-1.0996-3.4004v-31.4c0-0.7 0.09883-1.4 0.29883-2 0.2-1.2 1.2004-2.0996 2.4004-2.0996 0.7 0 1.3008 0.19922 1.8008 0.69922 0.7 1 1.1 2.2004 1 3.4004v7.8008h7.2988v-7.8008c0-1.9-0.39922-3.8-1.1992-5.5-1.5-3.5-5.0008-5.6996-8.8008-5.5996zm-146.7 0.59961-7.8008 51.801h7.1016l1.3984-10.6h7.7012l1.4004 10.6h6.8984l-7.6992-51.801h-9zm23.5 0v51.801h6.6992v-35h0.80078l0.30078 2.2988 4.8984 32.701h2.9004l5-32.6 0.30078-2.4004h0.79883v35h6.7012v-51.801h-9l-4.5996 23.701-0.40039 2.8984h-0.5l-0.40039-2.8984-4.5-23.701h-9zm36.301 0v51.801h17.1v-7.5h-9.8008v-14.801h7.0996v-8h-7.0996v-14h9.8008v-7.5h-17.1zm105.1 0v51.801h17.199v-7.5h-9.9004v-14.801h7.1016v-8h-7.1016v-14h9.9004v-7.5h-17.199zm21.4 0v7.5h7.2988v44.301h7.2012v-44.301h7.2988v-7.5h-21.799zm27.1 0v51.801h7.2988v-22.701h6.3008v22.701h7.3008v-51.801h-7.3008v21.5h-6.3008v-21.5h-7.2988zm28.199 0v51.801h17.1v-7.5h-9.7988v-14.801h7.0996v-8h-7.0996v-14h9.7988v-7.5h-17.1zm23.6 0v51.801l7.4004 0.099609v-22h2.4004l4 22 6.9004-0.30078-4.8008-24.898 0.09961-0.10156c1.6-1.1 2.7008-2.7 3.3008-4.5 0.8-2.3 1.0996-4.6992 1.0996-7.1992 0-5-0.99961-8.6992-3.0996-11.199-2.1-2.5-5.4008-3.7012-9.8008-3.7012h-7.5zm7.3008 7.0996h0.19922c1.4-0.1 2.7008 0.30156 3.8008 1.1016 1.4 1.2 2.0996 3.4988 2.0996 6.7988s-0.69961 5.6008-2.0996 6.8008c-1.1 0.9-2.4008 1.2992-3.8008 1.1992h-0.19922v-15.9zm-268.3 8.1016h0.80078l0.19922 1.5 2.2012 16.699h-5.7012l2.2012-16.699 0.29883-1.5z"/>
</svg>
