<svg width="194" height="64" viewBox="0 0 194 64" fill="none" xmlns="http://www.w3.org/2000/svg">
<g clip-path="url(#clip0_398_4188)">
<path d="M107.088 21.5L97.545 31.0185L88.002 21.5H88V41.5H91.3846V29.6475L97.547 35.7941L99.9399 33.4072L99.9379 33.4053L103.708 29.6447V41.5H107.093L107.088 21.5Z" fill="black"/>
<path d="M193.546 21.5L184.003 31.0185L174.46 21.5H174.458V41.5H177.843V29.6475L184.005 35.7941L186.398 33.4072L186.396 33.4053L190.167 29.6447V41.5H193.551L193.546 21.5Z" fill="black"/>
<path fill-rule="evenodd" clip-rule="evenodd" d="M130.534 31.5C130.534 37.0228 126.044 41.5 120.506 41.5C114.967 41.5 110.478 37.0228 110.478 31.5C110.478 25.9771 114.967 21.5 120.506 21.5C126.044 21.5 130.534 25.9771 130.534 31.5ZM127.149 31.5001C127.149 35.1588 124.175 38.1249 120.506 38.1249C116.836 38.1249 113.862 35.1588 113.862 31.5001C113.862 27.8412 116.836 24.8751 120.506 24.8751C124.175 24.8751 127.149 27.8412 127.149 31.5001Z" fill="black"/>
<path d="M161.72 21.5L171.073 41.4999H167.338L161.72 29.4854L156.102 41.4999H152.367L161.72 21.5Z" fill="black"/>
<path d="M136.349 24.8751V21.5H148.982V37.0972C147.179 39.7537 144.13 41.5 140.671 41.5C138.073 41.5 135.705 40.5145 133.924 38.8978L136.321 36.5072C137.487 37.515 139.008 38.1249 140.671 38.1249C142.625 38.1249 144.382 37.2839 145.598 35.9452V24.8751H136.349Z" fill="black"/>
</g>
<rect width="64" height="64" fill="black"/>
<path d="M44.4325 19L32.2174 31.1837L20.0023 19H19.9998V44.6H24.332V29.4288L32.2199 37.2964L35.2829 34.2413L35.2803 34.2388L40.1062 29.4253V44.6H44.4386L44.4325 19Z" fill="white"/>
<defs>
<clipPath id="clip0_398_4188">
<rect width="106" height="20" fill="black" transform="translate(88 21.5)"/>
</clipPath>
</defs>
</svg>
